<?xml version="1.0" standalone="no"?>
<!DOCTYPE svg PUBLIC "-//W3C//DTD SVG 1.1//EN" "http://www.w3.org/Graphics/SVG/1.1/DTD/svg11.dtd" >
<svg xmlns="http://www.w3.org/2000/svg">
<metadata>Generated by IcoMoon</metadata>
<defs>
<font id="icomoon" horiz-adv-x="1024">
<font-face units-per-em="1024" ascent="960" descent="-64" />
<missing-glyph horiz-adv-x="1024" />
<glyph unicode="&#x20;" horiz-adv-x="512" d="" />
<glyph unicode="&#xe900;" horiz-adv-x="495" d="M137.206 268.918c-2.846 0.712-5.304 2.478-7.201 5.126-9.622-14.843-13.678-28.114-10.141-40.023 14.802-49.977 58.896-86.886 111.704-91.802-50.471 15.33-87.824 67.919-94.363 126.699zM126.87 298.453c-3.179 2.266-5.903 4.387-7.84 6.238-3.376-12.433-4.933-25.586-4.38-39.14 0.108-2.738 0.304-5.45 0.576-8.137 1.953 8.009 5.799 16.376 11.312 24.91-1.066 4.993-0.896 10.672 0.332 16.129zM129.359 306.082c1.333 3.030 3.003 5.824 4.992 8.182 1.599 1.883 3.303 3.382 5.112 4.494 4.803 22.384 14.834 42.321 29.496 57.392-21.893-15.565-38.672-37.759-47.493-63.51 1.171-1.605 4.284-4.026 7.893-6.558zM318.747 191.175c-10.929 1.214-25.549 4.102-31.933 6.312-7.125 2.464-13.464 8.417-16.947 15.937-1.443 3.108-2.748 7.242-2.957 12.256-0.117 2.997 0.168 6.302 1.046 9.878-40.068 12.22-82.509 29.192-112.055 44.97-1.041-1.903-2.229-3.674-3.563-5.251-2.222-2.629-4.718-4.536-7.287-5.625 2.775-24.584 11.312-48.673 24.905-69.662 18.032-27.842 42.591-46.921 69.12-52.928 9.405-2.12 21.698-4.764 32.697-2.328 40.779 9.030 74.020 37.236 90.266 74.34-1.903-0.338-4.041-0.533-6.339-0.612-9.302-27.222-28.869-28.179-36.954-27.287zM372.706 276.055c-0.579 14.337-3.471 28.026-8.308 40.729-5.948 15.579-25.826 26.626-52.010 32.557-48.409 10.944-111.996-7.134-152.458-41.176 1.554-6.209 1.094-13.614-0.993-20.369 29.155-15.676 71.556-32.643 111.561-44.82 9.415 21.621 27.44 25.742 41.499 22.229 10.071-2.512 16.546-3.83 21.272-4.781l5.2-1.098c6.682-1.563 12.544-6.003 16.061-12.189 2.492-4.37 4.78-11.282 3.218-20.802 4.916 0.287 7.295 1.112 7.845 1.763 5.25 14.967 7.805 31.157 7.116 47.958zM349.766 226.336c1.61 7.976-0.131 13.527-2.070 16.921-2.429 4.286-6.455 7.355-11.009 8.421l-4.981 1.047c-4.533 0.916-11.369 2.307-21.614 4.863-13.722 3.427-25.495-2.856-31.996-16.869 6.683-1.943 13.267-3.74 19.683-5.365 1.034 4.992 1.254 8.454 1.254 8.515 0.133 2.161 1.991 3.813 4.154 3.686s3.816-1.976 3.686-4.148c-0.012-0.281-0.266-4.252-1.457-9.917 1.27-0.298 2.543-0.598 3.791-0.877 1.287-0.295 2.554-0.575 3.796-0.837 1.118 5.521 1.84 10.213 1.858 10.309 0.326 2.143 2.33 3.613 4.468 3.289 2.15-0.321 3.621-2.324 3.303-4.469-0.057-0.377-0.786-5.076-1.937-10.709 2.632-0.514 5.129-0.962 7.496-1.367 0.871 4.763 1.085 8.549 1.085 8.62 0.104 2.164 1.951 3.834 4.116 3.728 2.171-0.104 3.842-1.945 3.731-4.105-0.014-0.323-0.226-4.299-1.159-9.419 5.441-0.738 10.011-1.143 13.802-1.318zM276.993 216.735c3.067-6.624 8.412-10.454 12.392-11.825 5.172-1.794 18.855-4.667 30.221-5.914 12.467-1.38 22.214 5.557 27.769 19.572-4.171 0.239-8.639 0.729-13.26 1.372-0.867-2.821-1.97-5.634-3.394-8.132-1.071-1.885-3.464-2.535-5.35-1.469-1.885 1.072-2.543 3.471-1.468 5.364 0.942 1.656 1.721 3.536 2.367 5.474-2.438 0.416-4.891 0.877-7.32 1.346-0.833-3.257-1.787-6.351-2.789-8.665-0.867-1.988-3.187-2.892-5.175-2.028-1.991 0.865-2.892 3.179-2.028 5.168 0.811 1.86 1.587 4.383 2.3 7.117-1.273 0.28-2.535 0.559-3.783 0.84-1.319 0.297-2.671 0.616-4.018 0.941-0.708-2.276-1.539-4.642-2.554-7.040-0.837-1.996-3.153-2.931-5.149-2.089-1.993 0.84-2.937 3.147-2.092 5.141 0.847 1.977 1.546 3.947 2.146 5.844-6.617 1.678-13.417 3.544-20.312 5.555-1.662-7.232-0.219-12.886 1.497-16.572zM147.614 314.597c-1.741 0.318-5.195 0.292-8.647-3.461-5.467-5.925-8.033-13.953-7.638-23.845v0c0.11-2.523 0.462-3.936 1.176-5.969 1.275-3.595 4.336-5.971 6.573-6.377 2.659-0.487 5.66 1.068 8.463 4.384 6.122 7.264 8.763 20.584 5.759 29.082-1.247 3.544-3.263 5.741-5.687 6.186z" />
<glyph unicode="&#xe901;" horiz-adv-x="495" d="M187.727 960c-50.592 0-62.585-25.94-62.585-25.94s58.375 4.219 58.375-53.434c0-25.946-14.12-43.533-29.065-62.144-17.363-21.614-37.032-46.115-37.032-87.215 0-68.035 43.708-99.952 82.27-128.109 33.595-24.536 65.324-47.706 65.324-91.335 0-43.872-19.242-77.882-28.024-86.66-14.73-14.73-28.004-17.409-38.659-19.564-10.946-2.209-21.288-4.332-23.459-20.056-40.507-24.327-65.046-67.657-65.046-114.666 0-1.832 0.039-3.674 0.111-5.517 1.455-35.727 16.737-68.749 43.027-92.977 26.288-24.235 60.442-36.773 96.163-35.316 35.725 1.455 68.741 16.739 92.976 43.020 24.235 26.289 36.774 60.445 35.311 96.161-2.212 54.537-36.821 101.805-88.162 120.416l0.196-0.073c-0.032 0.014-0.7 0.281-0.7 0.281-0.008 0.006-1.211 0.425-1.211 0.425-6.493 2.242-13.859 4.788-13.859 21.488 0 16.183 7.346 17.525 21.967 20.21 8.692 1.596 19.325 3.546 29.753 9.917 18.56 11.329 22.044 24.996 18.664 28.37-4.598 4.605-9.668-5.067-28.35-10.695-6.734-2.033-13.513-3.215-18.092-3.215-3.808 0-6.651 0.32-8.736 0.698 9.812 18.383 20.803 33.43 20.925 33.587l2.395 3.26-2.863 2.863c-3.796 3.794-5.98 11.689-5.98 22.274 0 13.060 3.322 30.212 11.030 48.832 9.121 22.004 45.318 93.816 128.341 93.816h4.713v4.712c0 29.682-2.713 56.98-8.055 81.136l-1.041 4.693c0 0-8.060-2.288-14.774-3.787-0.8-0.176-7.080-1.719-7.364-0.394-0.253 1.171 4.596 3.607 6.272 4.448 6.305 3.136 14.163 6.436 14.163 6.436l-1.085 3.777c-5.922 20.667-11.882 30.545-12.137 30.958l-1.923 3.148-3.508-1.111c-69.138-21.78-83.921-67.658-92.755-95.064-4.299-13.318-6.958-20.853-11.766-20.853-14.27 0-26.075 11.801-29.955 15.681-43.104 43.108-39.804 74.187-34.797 121.236 1.772 16.603 3.776 35.416 3.776 56.904-0.002 54.154-20.581 79.378-64.768 79.378z" />
<glyph unicode="&#xe902;" horiz-adv-x="495" d="M269.726 511.823c0-43.692-18.636-79.225-29.404-89.989-33.366-33.369-60.889-9.070-61.187-42.548-15.141-13.712-26.034-34.561-31.38-58.372 0.332-0.032 0.663-0.079 0.989-0.141 3.133-0.572 5.824-2.362 7.879-5.189 42.379 34.539 107.629 52.699 157.501 41.421 15.857-3.584 29.305-9.438 39.492-18.395-15.316 24.772-38.729 43.89-66.404 53.81-6.57 2.356-18.247 5.053-18.247 26.367 0 39.779 43.521 8.852 72.196 52.178 1.403 2.14-0.616 4.007-2.3 2.325-8.673-8.667-29.974-14.632-41.241-14.632-11.279 0-15.521 2.569-15.521 2.569 10.647 21.188 23.909 39.222 23.909 39.222-26.62 26.618 18.182 172.968 136.725 172.968 0 33.949-3.587 60.428-7.945 80.119-2.821-0.687-25.149-5.952-26.17-1.258-0.904 4.16 16.447 13.179 22.421 16.147-5.826 20.292-11.628 29.802-11.628 29.802-101.605-32.012-81.185-116.134-105.937-116.134-16.11 0-28.766 12.54-33.285 17.060-60.688 60.678-32.404 100.838-32.404 181.473 0 54.32-21.095 74.663-60.054 74.663-38.956 0-52.875-16.869-52.875-16.869s53.377-1.729 53.377-57.794c0-58.696-66.099-74.898-66.099-149.358-0.002-123.954 147.594-121.626 147.594-219.448zM199.363 880.625c0 7.196-0.774 13.694-2.178 19.558 0 0 11.618 0.607 11.618 14.746 0 11.655-7.775 19.601-9.859 19.601-1.682 0-2.099-1.786-5.741-1.786-8.872 0-9.523 11.338-9.523 11.338 1.313 0.045 2.663 0.065 4.048 0.065 25.404 0 48.917-7.692 48.917-63.524 0-20.647-1.956-39.019-3.68-55.228-1.709-16.008-3.288-30.899-2.833-45.44 0 0-44.238 5.214-44.238 38.495 0 21.611 13.47 26.87 13.47 62.174zM137.206 268.918c-2.846 0.712-5.304 2.478-7.201 5.126-9.622-14.843-13.678-28.114-10.141-40.023 14.802-49.977 58.896-86.886 111.704-91.802-50.471 15.33-87.824 67.919-94.363 126.699zM126.87 298.453c-3.179 2.266-5.903 4.387-7.84 6.238-3.376-12.433-4.933-25.586-4.38-39.14 0.108-2.738 0.304-5.45 0.576-8.137 1.953 8.009 5.799 16.376 11.312 24.91-1.066 4.993-0.896 10.672 0.332 16.129zM129.359 306.082c1.333 3.030 3.003 5.824 4.992 8.182 1.599 1.883 3.303 3.382 5.112 4.494 4.803 22.384 14.834 42.321 29.496 57.392-21.893-15.565-38.672-37.759-47.493-63.51 1.171-1.605 4.284-4.026 7.893-6.558zM318.747 191.175c-10.929 1.214-25.549 4.102-31.933 6.312-7.125 2.464-13.464 8.417-16.947 15.937-1.443 3.108-2.748 7.242-2.957 12.256-0.117 2.997 0.168 6.302 1.046 9.878-40.068 12.22-82.509 29.192-112.055 44.97-1.041-1.903-2.229-3.674-3.563-5.251-2.222-2.629-4.718-4.536-7.287-5.625 2.775-24.584 11.312-48.673 24.905-69.662 18.032-27.842 42.591-46.921 69.12-52.928 9.405-2.12 21.698-4.764 32.697-2.328 40.779 9.030 74.020 37.236 90.266 74.34-1.903-0.338-4.041-0.533-6.339-0.612-9.302-27.222-28.869-28.179-36.954-27.287zM364.398 316.785c-5.948 15.579-25.826 26.626-52.010 32.557-48.409 10.944-111.996-7.134-152.458-41.176 1.554-6.209 1.094-13.614-0.993-20.369 29.155-15.676 71.556-32.643 111.561-44.82 9.415 21.621 27.44 25.742 41.499 22.229 10.071-2.512 16.546-3.83 21.272-4.781l5.2-1.098c6.682-1.563 12.544-6.003 16.061-12.189 2.492-4.37 4.78-11.282 3.218-20.802 4.916 0.287 7.295 1.112 7.845 1.763 5.246 14.967 7.803 31.156 7.113 47.956-0.576 14.338-3.468 28.026-8.305 40.731zM276.993 216.735c3.067-6.624 8.412-10.454 12.392-11.825 5.172-1.794 18.855-4.667 30.221-5.914 12.467-1.38 22.214 5.557 27.769 19.572-4.171 0.239-8.639 0.729-13.26 1.372-0.867-2.821-1.97-5.634-3.394-8.132-1.071-1.885-3.464-2.535-5.35-1.469-1.885 1.072-2.543 3.471-1.468 5.364 0.942 1.656 1.721 3.536 2.367 5.474-2.438 0.416-4.891 0.877-7.32 1.346-0.833-3.257-1.787-6.351-2.789-8.665-0.867-1.988-3.187-2.892-5.175-2.028-1.991 0.865-2.892 3.179-2.028 5.168 0.811 1.86 1.587 4.383 2.3 7.117-1.273 0.28-2.535 0.559-3.783 0.84-1.319 0.297-2.671 0.616-4.018 0.941-0.708-2.276-1.539-4.642-2.554-7.040-0.837-1.996-3.153-2.931-5.149-2.089-1.993 0.84-2.937 3.147-2.092 5.141 0.847 1.977 1.546 3.947 2.146 5.844-6.617 1.678-13.417 3.544-20.312 5.555-1.662-7.232-0.219-12.886 1.497-16.572zM349.766 226.336c1.61 7.976-0.131 13.527-2.070 16.921-2.429 4.286-6.455 7.355-11.009 8.421l-4.981 1.047c-4.533 0.916-11.369 2.307-21.614 4.863-13.722 3.427-25.495-2.856-31.996-16.869 6.683-1.943 13.267-3.74 19.683-5.365 1.034 4.992 1.254 8.454 1.254 8.515 0.133 2.161 1.991 3.813 4.154 3.686s3.816-1.976 3.686-4.148c-0.012-0.281-0.266-4.252-1.457-9.917 1.27-0.298 2.543-0.598 3.791-0.877 1.287-0.295 2.554-0.575 3.796-0.837 1.118 5.521 1.84 10.213 1.858 10.309 0.326 2.143 2.33 3.613 4.468 3.289 2.15-0.321 3.621-2.324 3.303-4.469-0.057-0.377-0.786-5.076-1.937-10.709 2.632-0.514 5.129-0.962 7.496-1.367 0.871 4.763 1.085 8.549 1.085 8.62 0.104 2.164 1.951 3.834 4.116 3.728 2.171-0.104 3.842-1.945 3.731-4.105-0.014-0.323-0.226-4.299-1.159-9.419 5.441-0.738 10.011-1.143 13.802-1.318zM147.614 314.597c-1.741 0.318-5.195 0.292-8.647-3.461-5.467-5.925-8.033-13.953-7.638-23.845v0c0.11-2.523 0.462-3.936 1.176-5.969 1.275-3.595 4.336-5.971 6.573-6.377 2.659-0.487 5.66 1.068 8.463 4.384 6.122 7.264 8.763 20.584 5.759 29.082-1.247 3.544-3.263 5.741-5.687 6.186z" />
<glyph unicode="&#xe903;" horiz-adv-x="495" d="M46.038 157.816c9.906-6.533 20.397-12.41 20.397-12.41l-3.672-9.516c-1.372 5.766-7.091 8.894-14.471 13.462l-24.162-34.939c-2.951-4.213-8.704-13.437-9.167-17.031 0 0-3.966 2.517-7.584 5.212-3.783 2.821-7.378 5.433-7.378 5.433 3.601 0.876 9.821 10.049 13.572 15.134l23.507 33.541c-8.804 6.807-12.242 8.14-18.463 8.464l8.367 6.274c0 0 8.041-6.365 19.055-13.624z" />
<glyph unicode="&#xe904;" horiz-adv-x="495" d="M428.923 39.459l0.729-0.8c-0.683 0.037-1.25-0.317-1.984-0.729l2.121-4.075c0.414-0.754 1-1.899 1.384-1.984 0 0-0.454-0.258-0.996-0.533-0.474-0.233-0.922-0.417-0.922-0.417 0.006 0.508-0.158 0.911-0.721 2.070l-2.22 4.276c-0.745-0.375-1.559-0.746-1.778-1.35l-0.188 1.183c0 0 1.097 0.531 2.28 1.142 1.373 0.711 2.296 1.217 2.296 1.217z" />
<glyph unicode="&#xe905;" horiz-adv-x="495" d="M61.676 71.15c-16.784 8.010-19.014 26.502-10.751 43.813 8.301 17.383 24.122 27.167 40.83 19.183 16.7-7.975 19.053-26.424 10.746-43.811-8.264-17.312-24.041-27.199-40.825-19.184zM89.355 129.127c-10.732 5.121-19.17-7-25.534-20.328-6.363-13.325-10.525-27.599 0.209-32.724 10.732-5.117 19.215 7.086 25.58 20.413 6.363 13.326 10.479 27.517-0.255 32.639z" />
<glyph unicode="&#xe906;" horiz-adv-x="495" d="M136.784 116.269c11.35-3.204 20.587-5.35 20.587-5.35l-0.983-10.159c-3.042 4.394-4.438 5.467-14.126 7.936l-11.746-39.495c-0.942-3.615-5.63-17.292-4.128-19.864 0 0-3.263 0.695-8.529 2.157-5.922 1.641-8.704 2.751-8.704 2.751 3.037 1.996 6.858 13.688 8.108 18.441l11.804 39.758c-10.037 3.348-12.37 3.581-17.167 1.352l5.818 8.664c-0.002-0.002 6.552-2.646 19.065-6.19z" />
<glyph unicode="&#xe907;" horiz-adv-x="495" d="M183.606 105.778c11.187-1.69 21.726-2.646 21.726-2.646l0.423-10.193c-4.18 3.719-5.755 4.922-16.799 6.312l-6.396-40.558c-0.45-3.717-2.827-17.825-0.989-20.164 0 0-3.875 0.429-9.225 1.177-5.35 0.76-8.637 1.514-8.637 1.514 2.612 2.041 4.785 15.398 5.239 19.118l6.553 41.063c-9.571 1.911-11.537 1.177-16.133-1.488l4.167 9.645c-0.002 0.002 8.936-2.098 20.071-3.78z" />
<glyph unicode="&#xe908;" horiz-adv-x="495" d="M225.085 67.216l-0.842-27.256c14.292-0.188 24.075 0.715 28.432 6.916l-2.186-12.384c0 0-7.916-0.161-19.507 0-12.739 0.182-22.738 1.013-22.738 1.013 2.121 2.099 2.646 15.382 2.671 19.116l1.165 26.751c0.051 7.123 0.701 18.636-1.69 21.055 10.354-0.715 9.036-0.703 18.545-1.072 12.45-0.494 19.501-0.124 19.501-0.124l1.567-10.226c-4.86 4.057-12.147 4.533-24.045 4.602l-0.655-22.877 18.271-0.104c1.645-0.019 1.749-0.935 1.744-2.768-0.020-1.806-0.045-2.768-1.781-2.75l-18.452 0.105z" />
<glyph unicode="&#xe909;" horiz-adv-x="495" d="M304.892 59.011c1.054-9.918 2.099-17.043 4.361-18.344-0.565-1.026-2.357-2.371-4.737-2.625-2.866-0.306-5.033 1.105-7.021 3.405l-32.399 37.165 1.22-23.644c0.392-3.717 0.82-17.803 3.133-19.683l-10.796-0.491c1.879 2.32 1.38 15.742 0.981 19.469l-1.526 26.683c-0.395 3.719-1.092 18.475-3.413 20.34l9.9 0.358 33.204-39.438-2.762 22.691c-0.395 3.731-2.416 17.252-4.65 19.132 0 0 1.191 0.116 5.222 0.663 4.023 0.547 5.487 0.839 5.487 0.839-1.866-2.327 0.298-16.198 0.7-19.918l3.096-26.601z" />
<glyph unicode="&#xe90a;" horiz-adv-x="495" d="M365.764 73.073c1.151-4.615 3.434-16.464 6.821-18.784 0 0-5.124-1.483-8.257-2.446-2.789-0.857-8.931-2.45-8.931-2.45 1.449 2.56-1.781 16.784-2.673 20.334l-3.079 12.376-20.587-5.050 2.34-12.585c0.677-4.069 2.821-17.76 5.597-19.432 0 0-2.88-0.596-8.88-1.826-5.024-1.034-8.525-1.587-8.525-1.587 1.542 2.561-0.525 15.259-1.163 19.308l-4.99 26.608c-0.91 4.959-3.199 17.505-5.954 18.974 0 0 2.671 0.507 8.549 1.65 5.881 1.145 8.763 1.925 8.763 1.925-1.449-2.979 1.105-15.018 1.8-19.235l1.584-8.444 20.258 4.939-2.184 8.627c-1.191 4.571-3.706 15.537-6.521 17.572 0 0 2.781 0.805 8.417 2.407 5.637 1.591 8.067 2.501 8.067 2.501-1.117-3.042 2.018-13.723 3.315-19.228l6.234-26.153z" />
<glyph unicode="&#xe90b;" horiz-adv-x="495" d="M403.375 88.845l-20.088-7.867 0.697-11.032c0.448-3.765 0.462-7.224 1.287-9.174 0.405-0.969 1.1-1.61 1.763-1.956 0 0-2.095-0.762-5.546-1.88-3.453-1.117-5.35-1.665-5.35-1.665 1.203 2.078 1.495 4.936 1.39 8.505l-1.77 52.297c-0.167 1.899-0.395 3.68-1.026 5.174-0.558 1.333-1.5 2.083-2.157 2.64 2.286 1.483 5.149 3.108 8.060 4.329 4.615 1.945 6.561 1.866 9.927-2.059l29.472-36.552c5.358-6.977 10.096-11.67 13.178-12.605 0 0-3.011-1.39-8.678-3.913-5.664-2.515-9.413-3.946-9.413-3.946 0.337 1.183 0.375 2.438-0.363 4.323-0.788 2.035-3.688 5.48-5.558 8.092l-5.824 7.289zM399.729 93.173l-17.851 24.735 1.259-31.066 16.592 6.331z" />
<glyph unicode="&#xe90c;" horiz-adv-x="495" d="M487.544 107.805c-4.041-2.724-7.066-4.809-7.066-4.809-0.297 3.977-7.975 13.807-10.23 16.79l-17.312 22.583 13.926-44.52c-0.542-0.885-1.528-2.121-2.446-2.815-2.748-2.089-5.421-1.678-7.863 0.246l-32.966 27.329 11.539-21.251c2.823-5.382 8.262-16.583 11.923-17.687 0 0-2.276-1.216-5.157-2.612-2.86-1.384-4.608-2.198-4.608-2.198 0.638 3.127-4.718 12.422-7.837 18.372l-12.84 24.15c-3.895 7.267-8.191 14.664-11.882 16.139 2.855 1.384 3.717 1.808 7.8 3.824 3.405 1.678 6.405 3.322 6.405 3.322l37.116-31.573-14.599 44.703c0 0 1.956 1.327 5.667 3.804 3.702 2.478 7.042 4.941 7.042 4.941 0.281-3.998 8.010-14.191 10.825-17.839l15.985-20.567c3.391-4.231 9.73-13.652 14.242-14.73-0.005 0.002-3.618-2.86-7.663-5.597z" />
<glyph unicode="&#xe90d;" horiz-adv-x="495" d="M437.176 41.461l1.821-2.334c0.535-0.65 1.074-1.455 1.645-1.696 0 0-0.476-0.338-0.936-0.65-0.46-0.304-0.802-0.547-0.802-0.547-0.128 0.629-0.901 1.605-1.154 1.945l-1.937 2.56 1.585-5.052c-0.065-0.104-0.176-0.241-0.281-0.317-0.416-0.32-0.721-0.137-1 0.083l-3.817 3.050 1.491-2.418c0.354-0.624 0.993-1.775 1.502-2.010 0 0-0.281-0.167-0.624-0.369-0.3-0.176-0.593-0.326-0.593-0.326 0.071 0.612-0.7 1.814-0.93 2.229l-1.638 2.744c-0.375 0.623-0.967 1.534-1.495 1.689 0 0 0.511 0.267 1.015 0.547 0.317 0.175 0.633 0.378 0.825 0.484l4.224-3.516-1.625 5.012c0.156 0.071 0.402 0.222 0.78 0.456 0.487 0.298 0.891 0.57 0.891 0.57-0.003-0.61 0.704-1.662 1.054-2.132z" />
<glyph unicode="&#xe90e;" horiz-adv-x="495" d="M107.692 26.518c3.44-1.262 7.879-2.802 7.879-2.802-3.737-2.71-7.17-13.487-9.399-19.339l-8.62-23.916c-2.307-6.492-6.24-15.9-4.922-19.259 0 0-4.743 1.638-8.58 3-3.283 1.171-5.148 1.795-8.625 3.283 4.225 1.12 8.208 15.174 9.504 18.709l3.946 11.162-20.66 8.613-5.974-12.767c-1.945-4.434-6.598-14.476-5.492-17.621 0 0-3.649 1.488-8.991 3.946-6.292 2.897-7.663 3.664-7.663 3.664 4.434 2.178 7.059 9.336 10.434 16.566l10.803 23.926c3.651 8.191 6.947 15.29 6.7 19.958 0 0 1.93-1.151 7.242-3.538 4.233-1.903 6.396-2.855 8.77-3.808-3.362-1.338-8.041-13.41-10.511-18.826l-3.165-6.762 20.182-8.315 3.096 7.664c1.449 3.915 6.455 15.614 5.375 19.62 0 0.002 4.142-1.502 8.671-3.158z" />
<glyph unicode="&#xe90f;" horiz-adv-x="495" d="M131.029-51.099c-17.992 4.732-23.714 22.155-18.942 40.304 4.797 18.247 18.421 30.473 36.325 25.759 17.896-4.706 23.739-22.055 18.95-40.301-4.778-18.157-18.338-30.494-36.333-25.762zM147.030 9.706c-11.5 3.023-17.442-10.159-21.12-24.137-3.688-13.969-5.013-28.472 6.479-31.502 11.5-3.016 17.474 10.26 21.146 24.23 3.686 13.975 4.992 28.381-6.506 31.409z" />
<glyph unicode="&#xe910;" horiz-adv-x="495" d="M179.764-57.522c0 0 1.145 1.237 1.925 3.759 1.1 3.542 1.808 10.354 2.654 15.667l5.038 38.951c-10.732 1.346-13.457 0.573-18.171-2.217l4.421 9.974c3.342-0.742 10.746-1.542 19.754-2.679 6.028-0.754 23.981-2.374 23.981-2.374l0.61-9.975c-3.96 4.581-8.067 4.996-17.012 5.699l-5.018-39.082c-0.45-3.638-2.446-16.263-0.467-20-2.158 0.246-5.733 0.65-8.732 0.949-3.107 0.318-7.198 1.026-8.985 1.33z" />
<glyph unicode="&#xe911;" horiz-adv-x="495" d="M265.284-43.994c0.125-11.726-9.413-20.216-24.083-20-11.409 0.167-17.375 4.862-19.659 6.773l2.374 11.128c3.542-7.091 9.413-12.246 16.022-12.35 6.904-0.097 12.337 3.966 12.45 10.81 0.071 4.975-2.666 7.978-14.184 13.97-11.038 5.699-15.146 11.387-15.146 19.866 0 11.546 10.042 17.409 21.842 17.412 8.676 0.008 14.729-2.651 18.532-4.684l-2.452-10.196c-5.263 7.029-10.029 9.634-15.776 9.713-5.662 0.093-9.671-2.996-9.634-8.814 0.039-6.34 7.014-9.77 16.421-15.024 10.816-6.050 13.229-12.117 13.292-18.603z" />
<glyph unicode="&#xe912;" horiz-adv-x="495" d="M318.706-8.072c0.417-1.376 0.67-3.048 0.8-4.361 0.111-1.21 0.17-2.813 0.026-4.33-0.311-3.8-2.113-8.216-5.097-11.322-4.556-4.758-10.493-7.123-18.364-7.491-3.037-0.187-3.763 0.742-3.966 2.932l-0.019 0.476c0 0-0.065 0.847 0.598 0.891l0.762 0.076c2.327 0.289 5.778 1.017 8.546 4.383 2.654 3.464 3.563 8.067 3.101 13.022-0.493 5.146-2.039 8.854-5.498 11.517-3.003 2.308-6.533 3.057-10.167 2.77 0 0-1.457-0.124-3.074-0.378 0 0-0.949-0.083-0.867-1.012l3.899-40.4c0.338-3.555 1.309-16.075 4.225-18.658 0 0-3.32-0.351-9.575-0.864-4.771-0.391-8.488-0.487-8.488-0.487 1.254 3.101 1.046 7.684 0.734 13.022l-3.023 31.857c-0.343 3.646-0.959 16.142-3.932 19.229 0 0 7.996 1.183 22.79 2.58 7.737 0.734 14.074-0.253 19.54-3.952 3.576-2.408 6.034-5.917 7.048-9.499z" />
<glyph unicode="&#xe913;" horiz-adv-x="495" d="M379.238-21.099c3.167-14.003-3.405-25.925-17.975-29.566-10.238-2.56-24.981 1.196-29.096 19.157l-5.012 21.205c-1.319 5.937-3.476 16.447-6.921 19.184 0 0 3.848 0.545 9.875 1.67s8.826 1.795 8.826 1.795c-1.584-2.495 0.079-12.32 1.653-19.537l6.397-26.955c1.142-4.941 2.755-8.322 5.525-10.317 2.053-1.483 4.795-1.888 7.65-1.367 2.6 0.484 5.305 1.951 6.722 4.584 1.503 2.762 1.495 6.759 0.338 11.695l-7.181 26.955c-1.965 7.42-4.227 16.706-6.658 18.261 0 0 2.926 0.793 8.471 2.379 4.199 1.196 6.696 1.925 8.508 2.563-1.658-4.058 2.288-16.501 3.125-20.062l5.753-21.644z" />
<glyph unicode="&#xe914;" horiz-adv-x="495" d="M444.659-15.574c1.412-0.541 2.932-0.911 4.208-0.369-0.145-0.879-0.97-2.634-2.353-4.051-5.891-6.037-11.421-4.999-13.294-4.258-10.159 3.875-27.147 18.929-27.847 20.573 0 0-0.175 0.429 0.266 0.612l0.616 0.272c2.653 1.105 5.664 4.103 6.852 6.941 1.899 4.162 1.579 7.899-0.351 12.475-1.996 4.758-5.492 7.755-8.23 8.562-4.049 1.196-7.071 0.247-8.912-0.487 0 0-2.43-0.956-3.153-1.684 0 0-0.488-0.403 0.079-2.061l12.833-36.655c1.95-5.392 5.336-15.909 8.404-17.683 0 0-3.467-1.364-8.724-3.263-5.259-1.899-8.457-2.782-8.457-2.782 1.071 4.094-2.979 15.223-4 18.345l-8.299 24.752c-2.075 5.966-5.863 16.66-8.946 18.372 0 0 6.059 1.696 19.679 7.417 7.242 3.042 14.261 4.343 20.592 2.489 3.842-1.129 6.438-3.059 8.562-6.136 0.813-1.191 1.409-2.361 1.925-3.573 0.473-1.126 0.799-2.419 1.013-3.621 0.67-3.74 0.108-7.717-2.055-11.468 0 0-1.951-3.777-6.116-6.74 0 0.002 13.377-11.332 25.707-15.979z" />
<glyph unicode="&#xe915;" d="M1024 448.001c0-282.788-229.241-512.001-512.001-512.001-282.775 0-511.999 229.213-511.999 512.001 0 282.762 229.224 511.999 511.999 511.999 282.76 0 512.001-229.237 512.001-511.999z" />
<glyph unicode="&#xe916;" d="M1006.917 448.001c0-273.344-221.574-494.918-494.918-494.918-273.348 0-494.927 221.574-494.927 494.918 0 273.348 221.579 494.927 494.927 494.927 273.342 0 494.918-221.579 494.918-494.927z" />
<glyph unicode="&#xe917;" d="M864.693 448.001c0-194.791-157.905-352.674-352.696-352.674-194.8 0-352.713 157.883-352.713 352.674 0 194.808 157.913 352.713 352.713 352.713 194.793 0.002 352.696-157.905 352.696-352.713z" />
<glyph unicode="&#xe918;" d="M854.023 448.001c0-188.897-153.151-342.024-342.024-342.024-188.897 0-342.026 153.129-342.026 342.024s153.129 342.028 342.026 342.028c188.876 0 342.024-153.131 342.024-342.028z" />
<glyph unicode="&#xe919;" d="M218.933 152.928c3.785-3.61 13.095-12.479 13.095-12.479l8.925 9.399-26.622 25.379-39.17-41.065 13.571-12.917c0 0 11.462 12.020 15.657 16.4 3.505-3.328 11.915-11.344 11.915-11.344l8.931 9.375c0 0-8.397 8.011-11.898 11.363 2.221 2.342 3.35 3.529 5.594 5.89z" />
<glyph unicode="&#xe91a;" d="M283.135 110.132c-1.204 7.186-5.239 13.535-11.344 17.873-6.077 4.317-13.371 6.021-20.558 4.843-7.74-1.316-14.694-5.827-19.592-12.682-4.881-6.9-6.853-14.942-5.538-22.712 1.209-7.165 5.215-13.472 11.301-17.811 6.090-4.33 13.438-6.062 20.614-4.856 7.736 1.308 14.694 5.823 19.575 12.699 3.908 5.452 5.946 11.697 5.946 17.94 0.002 1.555-0.129 3.154-0.403 4.705zM244.906 90.228c-6.221 4.401-1.086 13.602 2.538 18.66 3.615 5.099 10.622 12.983 16.844 8.587 6.493-4.644 0.427-14.679-2.486-18.752-2.921-4.119-10.39-13.134-16.895-8.494z" />
<glyph unicode="&#xe91b;" d="M324.978 95.925c-14.325 7.249-30.896 1.308-38.506-13.776-3.813-7.54-4.558-15.816-2.102-23.263 2.268-6.921 7.186-12.568 13.854-15.922 6.667-3.395 14.17-3.985 21.105-1.708 7.443 2.428 13.651 7.927 17.44 15.463 7.643 15.11 2.563 31.955-11.79 39.206zM309.134 54.007c-1.68-0.551-3.274-0.379-5.084 0.521-2.841 1.448-3.841 4.035-3.841 6.926 0 4 1.924 8.714 3.554 11.928 2.826 5.588 8.565 14.414 15.375 10.978 1.797-0.918 2.872-2.109 3.417-3.77 1.14-3.438-0.006-9.084-3.076-15.133-3.055-6.045-6.919-10.319-10.344-11.45z" />
<glyph unicode="&#xe91c;" d="M354.564 75.183l-2.637-7.557c0 0 6.743-2.365 8.789-3.042-2.581-7.38-14.476-41.335-14.476-41.335l17.662-6.193c0 0 11.915 33.924 14.489 41.305 2.059-0.72 8.804-3.063 8.804-3.063l4.28 12.197-35.271 12.374-1.641-4.685z" />
<glyph unicode="&#xe91d;" d="M427.897 58.794l-23.869 5.041-1.021-4.856-10.668-50.658 24.291-5.151c7.764-1.603 12.876 0.304 15.79 2.189 3.701 2.415 6.295 6.374 7.292 11.107 0.274 1.288 0.405 2.538 0.405 3.761 0 3.421-1.084 6.508-3.044 9.155 2.736 2.171 4.688 5.239 5.5 9.067 0.207 0.989 0.33 2.105 0.33 3.27 0 6.484-3.703 14.72-15.006 17.074zM421.327 20.119c-0.254-1.157-0.72-2.688-1.596-3.261-0.81-0.526-2.367-0.592-4.384-0.155 0 0-0.918 0.202-2.003 0.416 0.776 3.656 1.295 6.088 2.051 9.748 1.038-0.243 2.365-0.504 2.365-0.504 3.132-0.661 3.733-2.979 3.733-4.662 0.002-0.676-0.084-1.247-0.166-1.581zM419.696 47.232c2.096-0.476 3.636-1.245 4.229-2.141 0.271-0.411 0.405-0.989 0.405-1.67 0-0.416-0.056-0.888-0.164-1.461-0.321-1.489-0.756-3.546-4.886-2.697 0 0-0.515 0.131-1.224 0.287 0.659 3.068 0.972 4.599 1.639 7.682z" />
<glyph unicode="&#xe91e;" d="M471.961 50.543l-25.926-53.090 14.806-1.135c0 0 4.007 8.457 5.607 11.827 3.132-0.261 6.271-0.48 9.341-0.728 1.148-3.546 4.041-12.546 4.041-12.546l19.698-1.532-22.009 68.223-5.558-11.019z" />
<glyph unicode="&#xe91f;" d="M530.419 8.166c-0.327 7.759-1.818 43.080-1.818 43.080l-18.707-0.786 2.365-56.686 37.487 1.553-0.56 13.606c0 0-13.39-0.573-18.767-0.767z" />
<glyph unicode="&#xe920;" d="M581.732 13.599c-1.204 7.667-6.678 42.591-6.678 42.591l-4.905-0.786-13.61-2.12 8.785-56.072 37.085 5.827-2.124 13.451c-0.002 0-13.229-2.087-18.552-2.891z" />
<glyph unicode="&#xe921;" d="M689.089 51.31c-0.151-4.86-3.016-9.045-7.486-10.816-2.477-0.984-4.843-0.984-7.208 0.022-3.638 1.557-7.005 5.495-9.033 10.556-2.38 5.974-2.865 11.040-1.303 14.608 1.073 2.495 3.177 4.358 6.392 5.646 3.483 1.381 6.79 0.11 11.322-2.561l4.158-2.449 6.904 10.885-4.097 2.693c-7.531 4.948-16.854 5.959-24.924 2.738-7.482-2.984-13.287-8.567-16.355-15.706-3.113-7.245-3.113-15.525 0.045-23.388 5.959-14.894 22.796-22.231 37.518-16.337 10.64 4.25 16.661 12.333 17.427 23.373l0.349 4.927-13.552 1.006-0.157-5.194z" />
<glyph unicode="&#xe922;" d="M732.757 66.792c-3.832 6.812-21.047 37.694-21.047 37.694l-4.313-2.432-12.046-6.728 27.686-49.534 32.733 18.285-6.626 11.891c0.002 0-11.717-6.529-16.387-9.177z" />
<glyph unicode="&#xe923;" d="M769.165 143.186l-4.013-2.936-7.031-5.17 22.977-31.32c1.051-1.417 1.051-2.361 0.959-2.912-0.215-1.616-1.902-3.369-3.391-4.442-0.702-0.5-2.327-1.183-3.99-0.918-1.183 0.172-2.124 0.812-2.958 1.943l-22.707 30.967-15.133-11.079 22.598-30.811c3.354-4.56 7.518-7.257 12.378-7.999 5.452-0.851 11.65 1.006 17.41 5.263 11.848 8.666 11.654 20.165 6.484 27.214l-23.582 32.201z" />
<glyph unicode="&#xe924;" d="M838.108 154.571c-3.483 3.615-7.779 5.239-12.29 4.993-0.265 3.505-1.624 6.855-4.334 9.659-4.733 4.886-15.314 8.692-25.055-0.791l-17.524-16.947 39.486-40.766 17.83 17.283c5.694 5.519 6.947 10.864 7.005 14.321 0.090 4.429-1.732 8.768-5.118 12.247zM808.276 155.948c0.588-0.627 1.308-1.359 1.308-2.38 0-0.834-0.455-1.868-1.818-3.173 0 0-0.371-0.375-0.875-0.879-2.212 2.296-3.257 3.373-5.5 5.676 3.949 3.626 5.588 2.077 6.885 0.756zM817.626 141.911c3.201 3.089 6.282 0.375 7.161-0.547 0.853-0.853 1.818-2.057 1.818-3.1 0 0 0 0 0-0.034-0.022-0.963-0.834-2.296-2.301-3.72 0 0-0.681-0.661-1.489-1.422-2.583 2.671-4.33 4.463-6.917 7.12 0.765 0.763 1.728 1.704 1.728 1.704z" />
<glyph unicode="&#xe925;" d="M218.81 158.186c1.545-1.489 13.074-12.484 13.074-12.484l3.802 4.009-21.243 20.258-0.855-0.896-33.157-34.782 8.169-7.796c0 0 14.127 14.806 15.648 16.426 1.545-1.469 11.939-11.368 11.939-11.368l3.809 3.994c0 0-10.394 9.892-11.939 11.363 1.379 1.443 9.388 9.849 10.754 11.275z" />
<glyph unicode="&#xe926;" d="M269.622 124.981c-5.265 3.748-11.566 5.243-17.751 4.211-6.79-1.165-12.88-5.129-17.19-11.195-4.323-6.088-6.058-13.141-4.905-19.905 1.036-6.202 4.522-11.676 9.791-15.415 5.297-3.77 11.624-5.239 17.837-4.203 6.753 1.135 12.852 5.116 17.156 11.142 3.44 4.86 5.258 10.364 5.258 15.816 0 1.359-0.118 2.736-0.34 4.093-1.053 6.195-4.545 11.687-9.855 15.456zM264.828 96.552c-3.563-4.985-12.837-15.937-22.068-9.366-9.198 6.529-1.896 18.875 1.652 23.89 3.559 5.015 12.837 15.945 22.022 9.416 9.233-6.59 1.952-18.942-1.607-23.94z" />
<glyph unicode="&#xe927;" d="M323.3 92.589c-12.43 6.286-26.831 1.056-33.509-12.152-3.363-6.639-4.026-13.864-1.891-20.415 1.96-5.95 6.221-10.816 12.001-13.724 5.793-2.962 12.288-3.488 18.27-1.519 6.508 2.15 11.941 6.971 15.303 13.606 6.659 13.205 2.29 27.923-10.174 34.204zM302.374 51.226c-10.064 5.058-4.709 18.377-1.928 23.847 2.772 5.495 10.306 17.701 20.355 12.593 2.676-1.338 4.461-3.328 5.312-5.933 1.973-6.030-1.228-13.821-3.317-17.962-2.079-4.11-6.469-11.318-12.505-13.296-2.583-0.875-5.254-0.61-7.917 0.75z" />
<glyph unicode="&#xe928;" d="M358.090 73.961l-1.426-4.035c0 0 7.033-2.473 8.796-3.093-0.78-2.208-14.489-41.3-14.489-41.3l10.655-3.744c0 0 13.72 39.090 14.487 41.305 1.762-0.614 8.796-3.072 8.796-3.072l1.838 5.192-28.263 9.92-0.392-1.172z" />
<glyph unicode="&#xe929;" d="M427.145 55.168l-20.23 4.27-0.271-1.228-9.888-47.043 20.642-4.334c5.248-1.099 9.614-0.551 12.992 1.661 2.921 1.906 4.881 4.948 5.683 8.735 0.205 1.034 0.327 2.021 0.327 2.984 0 4.115-2.040 7.598-5.683 10.095 4.218 1.209 7.238 4.317 8.21 8.921 0.166 0.72 0.265 1.57 0.265 2.533-0.002 4.711-2.477 11.387-12.046 13.408zM420.073 51.002c3.401-0.72 5.756-2.021 6.954-3.871 0.689-1.051 1.030-2.281 1.030-3.712 0-0.698-0.090-1.422-0.254-2.208-1.314-6.264-6.374-6.198-9.285-5.562 0 0-3.081 0.635-4.866 1.010 0.416 1.928 2.764 13.098 3.169 15.021 1.293-0.261 3.253-0.679 3.253-0.679zM418.518 30.003c5.747-1.209 6.654-5.743 6.654-8.498 0-1.183-0.185-2.031-0.209-2.167-0.579-2.719-1.616-4.556-3.208-5.584-1.682-1.122-4.106-1.338-7.171-0.702 0 0-3.679 0.786-5.65 1.178 0.424 2.021 3.175 15.054 3.591 17.040 1.685-0.349 5.993-1.267 5.993-1.267z" />
<glyph unicode="&#xe92a;" d="M475.315 48.908l-23.53-48.166 6.777-0.504c0 0 4.981 10.467 5.64 11.805 1.433-0.11 12.951-1.006 14.364-1.116 0.45-1.381 4.043-12.55 4.043-12.55l11.671-0.9-17.477 54.187-1.489-2.755zM472.732 29.544c1.137-3.638 3.326-10.653 4.050-12.942-2.324 0.172-7.678 0.588-9.978 0.763 1.056 2.167 4.263 8.759 5.928 12.18z" />
<glyph unicode="&#xe92b;" d="M526.846 4.288c-0.093 2.344-1.822 43.080-1.822 43.080l-1.2-0.045-10.073-0.411 2.070-49.277 30.062 1.275-0.265 6.15c0.002-0.002-16.6-0.7-18.772-0.771z" />
<glyph unicode="&#xe92c;" d="M578.643 9.303c-0.375 2.322-6.702 42.642-6.702 42.642l-1.204-0.194-9.942-1.577 7.641-48.713 29.721 4.692-0.959 6.088c0-0.002-16.43-2.581-18.556-2.938z" />
<glyph unicode="&#xe92d;" d="M692.792 51.226c-0.177-6.417-3.942-11.852-9.812-14.218-3.417-1.359-6.79-1.312-10.051 0.088-4.595 1.943-8.608 6.547-11.040 12.589-2.736 6.9-3.177 12.942-1.267 17.46 1.489 3.417 4.317 5.974 8.453 7.615 5.411 2.167 10.379-0.304 14.584-2.798l1.051-0.614 3.024 4.75-1.015 0.681c-6.525 4.274-14.58 5.166-21.52 2.389-6.572-2.63-11.676-7.49-14.325-13.716-2.719-6.303-2.693-13.619 0.088-20.514 5.187-13.014 19.834-19.405 32.696-14.28 9.328 3.744 14.39 10.51 15.066 20.17l0.088 1.245-5.954 0.416-0.067-1.262z" />
<glyph unicode="&#xe92e;" d="M731.313 61.736c-1.161 2.036-21.049 37.668-21.049 37.668l-1.094-0.61-8.759-4.909 24.024-43.017 26.262 14.659-2.984 5.385c0.002-0.002-14.539-8.1-16.4-9.177z" />
<glyph unicode="&#xe92f;" d="M768.353 137.995l-5.041-3.703 20.784-28.317c1.396-1.906 1.943-3.809 1.641-5.672-0.495-3.373-3.567-5.963-4.856-6.883-1.469-1.112-4.166-2.031-6.753-1.611-2.189 0.323-3.985 1.482-5.431 3.412l-20.519 27.987-9.089-6.702 20.385-27.789c2.742-3.748 6.092-5.959 9.942-6.529 6.071-0.918 11.768 2.458 14.633 4.552 9.836 7.232 9.967 16.279 5.717 22.035l-21.415 29.22z" />
<glyph unicode="&#xe930;" d="M835.43 151.984c-3.813 3.946-8.696 4.847-13.755 2.9 0.396 1.178 0.64 2.385 0.64 3.589 0 2.928-1.165 5.782-3.509 8.192-3.173 3.261-11.389 7.296-19.795-0.875l-14.849-14.39 34.291-35.398 15.181 14.722c3.832 3.677 5.831 7.641 5.874 11.65 0.058 3.501-1.364 6.812-4.078 9.61zM813.287 153.524c0-2.482-1.616-4.515-2.912-5.786 0 0-2.277-2.212-3.567-3.479-1.381 1.422-9.332 9.61-10.691 11.062 0.922 0.892 2.374 2.273 2.374 2.273 4.64 4.52 8.714 4.821 12.453 0.944 1.713-1.777 2.344-3.46 2.344-5.013zM822.733 127.833c-1.405 1.448-10.67 11.036-12.092 12.484 1.224 1.178 4.397 4.265 4.397 4.265 6.051 5.831 12.184-0.349 12.445-0.635 1.906-1.969 2.844-3.832 2.844-5.685 0-0.034 0-0.054 0-0.071-0.022-2.036-1.2-4.166-3.438-6.379 0.002 0.002-2.953-2.841-4.155-3.979z" />
<glyph unicode="&#xe931;" d="M284.526 785.292l-20.695-5.582 2.376-7.413c2.859-8.987 0.271-18.397-6.734-24.541-3.897-3.417-8.397-4.985-13.36-4.644-7.542 0.506-16.055 5.388-22.763 13.065-7.906 9.056-11.85 17.774-11.348 25.163 0.349 5.388 2.968 10.12 7.994 14.524 5.551 4.862 12.591 4.672 22.141 2.779l7.083-1.4 4.58 19.821-7.13 1.738c-15.331 3.794-31.32 0.067-42.726-9.918-22.339-19.547-24.161-51.47-4.237-74.255 18.515-21.167 50.641-23.474 71.58-5.159 15.082 13.173 20.336 30.027 15.213 48.689l-1.971 7.133z" />
<glyph unicode="&#xe932;" d="M340.725 889.095l-21.139-9.955c0 0 11.801-25.008 15.857-33.627-6.030-2.835-11.87-5.594-17.906-8.444-4.071 8.612-15.879 33.631-15.879 33.631l-27.834-13.141 42.39-89.916 27.858 13.134c0 0-13.134 27.811-17.359 36.828 6.034 2.824 11.87 5.582 17.916 8.429 4.237-8.992 17.354-36.807 17.354-36.807l27.852 13.143-42.377 89.895-6.734-3.171z" />
<glyph unicode="&#xe933;" d="M434.971 833.389c-1.357 6.695-2.736 13.507-4.076 20.193 8.6 1.73 31.451 6.344 31.451 6.344l-4.020 19.972c0 0-22.862-4.621-31.469-6.359-1.239 6.122-2.264 11.264-3.511 17.378 8.931 1.801 33.386 6.743 33.386 6.743l-4.031 19.963-7.316-1.469-56.253-11.376 19.666-97.449 64.083 12.955-4.026 19.952c0 0-24.894-5.017-33.886-6.846z" />
<glyph unicode="&#xe934;" d="M525.865 919.934l-30.818 0.64-0.153-7.432-1.926-91.954 64.688-1.357 0.463 21.531c0 0-24.836 0.534-33.911 0.72 0.261 12.171 1.657 77.853 1.657 77.853z" />
<glyph unicode="&#xe935;" d="M625.73 869.799c-7.994 5.872-10.334 8.227-9.526 11.434 0.396 1.663 2.208 6.973 7.951 5.551 3.457-0.888 6.896-2.708 8.427-10.144l1.682-8.255 20.351 6.876-1.267 6.407c-2.503 12.583-13.145 23.293-26.503 26.63-9.567 2.376-19.157 1.105-27.029-3.623-7.225-4.328-12.307-11.159-14.317-19.243-5.108-20.379 8.63-30.191 17.71-36.692 9.315-6.659 11.68-9.265 10.258-14.827-0.446-1.738-1.469-3.111-3.072-4.082-1.863-1.096-4.203-1.493-6.105-0.997-4.892 1.204-7.010 3.516-9.071 9.843l-2.499 7.585-20.415-8.35 1.978-6.482c3.828-12.596 12.964-20.534 27.921-24.28 16.805-4.205 37.194 3.524 42.276 23.705 5.295 21.264-9.179 31.919-18.75 38.946z" />
<glyph unicode="&#xe936;" d="M699.25 816.78c7.843-3.964 28.631-14.476 28.631-14.476l9.194 18.177c0 0-20.805 10.512-28.623 14.463 2.798 5.575 5.17 10.263 7.964 15.827 8.113-4.097 30.411-15.366 30.411-15.366l9.168 18.177-57.864 29.241-3.345-6.624-41.507-82.094 58.349-29.469 9.201 18.166c0 0-22.673 11.454-30.865 15.579 3.068 6.101 6.219 12.296 9.287 18.399z" />
<glyph unicode="&#xe937;" d="M814.491 807.496l-92.719-47.976 17.738-15.426c0 0 15.303 8.136 20.866 11.057 4.136-3.602 10.232-8.905 14.302-12.44-1.995-5.915-7.662-22.548-7.662-22.548l24.437-21.262 39.642 116.893-16.602-8.298z" />
<glyph unicode="&#xe938;" d="M281.052 779.243l-10.928-2.971 0.801-2.473c3.473-10.909 0.34-22.32-8.201-29.788-4.905-4.304-10.625-6.275-16.943-5.868-8.957 0.601-18.483 5.978-26.171 14.771-8.791 10.064-13.149 20.015-12.572 28.778 0.452 6.654 3.714 12.682 9.694 17.912 7.852 6.865 17.738 5.61 26.37 3.901l2.372-0.459 2.391 10.36-2.376 0.592c-13.778 3.382-28.076 0.075-38.282-8.86-20.193-17.686-21.816-46.572-3.759-67.235 16.712-19.108 45.678-21.202 64.587-4.688 13.711 12.025 18.319 26.686 13.675 43.625l-0.657 2.402z" />
<glyph unicode="&#xe939;" d="M342.836 884.629l-16.63-7.863c0 0 14-29.709 15.842-33.614-3.559-1.687-23.313-11.008-26.897-12.682-1.838 3.912-15.829 33.618-15.829 33.618l-18.903-8.905 38.162-80.922 18.89 8.893c0 0-15.493 32.841-17.359 36.815 3.582 1.687 23.313 10.984 26.895 12.677 1.861-3.964 17.359-36.824 17.359-36.824l18.866 8.914-38.159 80.935-2.236-1.043z" />
<glyph unicode="&#xe93a;" d="M431.076 827.545c-0.776 3.888-5.248 26.029-6.023 29.917 4.138 0.832 31.447 6.351 31.447 6.351l-2.066 10.224c0 0-27.3-5.495-31.462-6.338-0.756 3.813-4.696 23.293-5.452 27.102 4.171 0.855 33.366 6.734 33.366 6.734l-2.070 10.228-53.833-10.864 17.708-87.71 54.348 10.971-2.066 10.228c-0.004-0.002-29.691-5.993-33.896-6.844z" />
<glyph unicode="&#xe93b;" d="M520.792 915.068l-20.87 0.452-0.045-2.464-1.848-87.002 54.788-1.161 0.243 11.613c0 0-29.659 0.627-33.907 0.717 0.108 4.642 1.639 77.844 1.639 77.844z" />
<glyph unicode="&#xe93c;" d="M625.359 891.585c6.635-1.661 10.467-6.094 12.092-13.946l0.564-2.744 10.885 3.679-0.411 2.148c-2.15 10.721-11.322 19.883-22.845 22.778-8.281 2.066-16.531 0.982-23.259-3.057-6.088-3.658-10.379-9.42-12.068-16.217-4.287-17.094 6.855-25.055 15.79-31.443 9.045-6.469 14.498-10.885 12.176-20.060-0.922-3.819-3.417-6.002-5.34-7.15-2.979-1.786-6.639-2.344-9.853-1.555-6.596 1.654-9.993 5.202-12.572 13.117l-0.838 2.529-11.301-4.608 0.657-2.169c3.285-10.795 11.264-17.639 24.398-20.926 14.431-3.604 31.917 2.925 36.225 20.114 4.489 18.016-7.337 26.734-16.906 33.73-8.123 5.997-13.031 10.006-11.363 16.633 1.461 5.924 6.368 11.051 13.97 9.147z" />
<glyph unicode="&#xe93d;" d="M714.233 857.426c3.809-1.915 30.378-15.342 30.378-15.342l4.728 9.321-49.008 24.758-1.122-2.21-39.243-77.661 49.465-24.999 4.713 9.317c0 0-27.007 13.655-30.831 15.596 1.784 3.546 11.975 23.681 13.746 27.229 3.77-1.904 28.623-14.463 28.623-14.463l4.737 9.321c0 0-24.879 12.548-28.649 14.463 1.754 3.46 10.711 21.21 12.462 24.67z" />
<glyph unicode="&#xe93e;" d="M816.77 803.080l-86.222-44.622 9.636-8.378c0 0 18.285 9.694 20.872 11.064 2.146-1.874 17.3-15.058 19.401-16.887-0.913-2.725-7.686-22.526-7.686-22.526l16.363-14.226 33.315 98.238-5.678-2.663zM771.041 766.277c4.078 2.109 14.498 7.522 20.853 10.829-2.365-6.756-6.264-17.88-7.759-22.21-3.307 2.895-9.782 8.522-13.093 11.381z" />
<glyph unicode="&#xe93f;" d="M756.606 461.435c-7.072 18.729-31.421 26.865-54.439 18.177-9.597-3.61-17.458-9.646-22.817-16.773 15.198 43.377 77.105 52.582 77.105 92.936 0 67.64-96.056 48.693-82.079-0.011 0 22.098 35.169 26.148 35.169 0 0-26.152-61.324-43.302-61.324-87.482 0-48.702 48.713-53.209 43.782-97.755-0.834-7.682-9.093-17.772-21.053-17.772-74.611 0-47.976 91.844-74.046 119.795l1.364 18.871c15.071-9.242 55.055 12.408 28.733 45.41 0-16.23-33.795-15.331-33.795 15.331 0 41.49 38.788 19.84 40.673 10.678-1.859 15.11-2.561 24.698-0.067 33.405-20.911-6.743-22.867 5.345-20.221 10.021 3.029 5.409 7.081 11.727 15.23 11.727 4.401 0 7.046-0.614 8.604-1.687 2.604-1.782 4.507 2.288 4.136-1.497 2.238 3.406 1.342-0.847 3.501 2.57 2.199 3.393 5.159 7.229 10.366 12.341l-0.224 7.654 6.092-2.234 5.849 9.459c-6.312 13.087-14.877 6.784-21.184 23.009-5.276 1.37-87.439-7.566-85.056 25.211-6.702 0-22.57-3.671-12.749-17.016-7.637-0.92-13.141 7.753-24.655-15.704 14.422 2.704 6.956-13.416 6.956-18.003 0-29.719-39.562-29.217-39.562-15.297-9.534-9.265-4.125-29.525 10.295-34.517 0 0-5.485-21.671-19.022-35.413-20.094 0.801-52.332 4.293-70.877 21.824-7.999 7.555-14.349 11.671-19.758 13.787v9.823c7.919 3.875 16.602 10.734 25.626 22.197 7.040 8.597 10.851 19.623 9.825 31.331-0.134 1.398-0.34 2.779-0.586 4.125-0.075 0.429-0.181 0.844-0.28 1.271-0.198 0.944-0.427 1.848-0.7 2.781-0.131 0.45-0.254 0.911-0.396 1.357-0.306 0.935-0.642 1.829-1.006 2.716-0.153 0.373-0.261 0.769-0.439 1.118-0.502 1.196-1.062 2.32-1.667 3.453-0.259 0.459-0.532 0.888-0.784 1.31-0.416 0.681-0.81 1.37-1.247 2.027-0.353 0.521-0.724 1.049-1.096 1.575-0.383 0.502-0.788 1.017-1.183 1.521-0.437 0.539-0.868 1.109-1.336 1.644-0.31 0.353-0.646 0.694-0.974 1.019-1.172 1.295-2.443 2.499-3.77 3.649-0.11 0.095-0.241 0.218-0.371 0.317-0.741 0.633-1.532 1.239-2.309 1.816-0.198 0.151-0.405 0.297-0.627 0.452-0.832 0.586-1.682 1.159-2.57 1.706-0.054 0.032-0.103 0.056-0.142 0.095-8.444 5.17-18.649 7.876-29.426 7.021-25.949-2.066-45.238-23.748-43.071-48.431 1.687-19.231 15.87-34.59 34.31-39.489-6.469-3.61-11.934-5.694-13.169-5.694 0.205-0.131 0.472-0.284 0.763-0.472 0.075-0.032 0.164-0.088 0.254-0.134 0.25-0.162 0.547-0.327 0.851-0.491 0.075-0.043 0.168-0.086 0.241-0.131 0.416-0.209 0.844-0.427 1.327-0.657 0.075-0.032 0.166-0.062 0.241-0.099 0.427-0.198 0.862-0.405 1.323-0.582 0.131-0.060 0.274-0.114 0.416-0.162 1.129-0.472 2.4-0.896 3.789-1.293 0.198-0.054 0.407-0.099 0.577-0.153 0.562-0.142 1.133-0.274 1.723-0.416 0.194-0.032 0.392-0.075 0.601-0.118 0.745-0.134 1.525-0.265 2.307-0.36 0.067 0 0.134-0.037 0.198-0.037v-5.586c-0.293-0.065-0.558-0.095-0.832-0.138-8.44-1.389-13.925-3.987-16.404-11.501-2.464-7.542 0.067-10.267 4.020-15.558-3.339-5.969-12.089-8.201-0.67-21.389-0.832-4.981 0.222-12.912 7.471-15.318 2.365-0.801 4.336-1.228 6.415-1.588l-0.009-98.869c-7.229-3.832-10.797-8.608-12.77-13.063 0 0-5.803 12.886-5.42-12.639 6.594 5.116 3.998-5.924 3.998-5.924-8.979-11.633 2.426-11.001 2.426-11.001 7.734 7.725 6.157-3.501 6.157-3.501 0-13.69 5.56-19.047 5.607-19.069v-75.322l-6.568-0.022 0.062-20.784 11.486 0.022c-6.445-2.676-10.698-9.041-10.077-16.077 0.78-8.869 8.972-15.459 18.302-14.739 9.321 0.75 16.249 8.524 15.454 17.415-0.528 6.135-4.593 11.142-10.12 13.442l10.599 0.030-0.043 20.784-6.32-0.026 0.011 66.83c1.303-0.715 2.712-1.211 4.242-1.545 0.61-0.114 1.215-0.198 1.838-0.239 0.274-0.045 0.558-0.045 0.832-0.054-1.7 8.785 3.548 14.608 3.548 14.608 2.695 4.056 6.592 7.217 11.027 9.45 13.263 6.652 31.363 4.97 36.772-5.862 34.275 9.037 63.732 43.485 63.732 43.485l16.872-28.715c-35.773-11.958-113.686-79.692-59.6-103.149-0.019-6.829-0.935-57.511-33.433-53.484-46.802 5.765-58.474-13.597-49.486-35.368-4.224-18.354 9.911-24.728 9.911-24.728-2.122 10.603 2.977 19.388 22.32 19.278-0.099-19.345 12.393-22.83 12.393-22.83 0.088 16.564 11.598 22.699 21.824 22.654-0.075-13.649 15.782-18.836 15.782-18.836s-4.020 15.728 13.905 18.836c45.378 7.906 2.76 54.574 71.767 67.433 0 0-34.362 5.183-34.362 23.965 0 17.096 31.104 28.791 41.813 28.791 21.962-41.962 45.82-42.293 52.076-42.595 9.724-10.864 6.467-47.481-7.574-46.761-51.401 2.76-49.521-28.509-43.76-34.904-0.657-12.135 8.785-19.144 8.785-19.144 0 13.009 12.378 16.669 28.252 15.808-0.834-15.892 9.289-18.265 9.289-18.265 0.278 15.993 12.109 18.703 20.514 18.265-0.614-11.208 10.51-14.511 10.51-14.511s-1.094 14.228 13.884 14.228c28.412 0.022-12.85 60.906 42.599 121.115-48.709-22.544-74.619 33.814-74.619 44.629 25.034-29.293 106.2-35.144 106.2 14.898 0 47.808-52.543 65.619-27.961 83.904 14.297 10.633 42.418-10.846 26.326-33.032 23.061 8.556 35.915 30.893 28.86 49.611zM445.279 459.927c-18.362-10.797-30.674-24.454-47.414-30.432-2.542-0.892-4.569-1.148-6.331-1.032v93.311c4.435-0.416 15.945-1.99 29.403-7.555 13.328-7.273 13.328-22.305-3.492-25.868 10.631-20.355 47.457-10.39 55.484 6.189 3.931 0.349 7.406-6.669 10.674-13.304-5.168-2.684-15.743-8.018-38.323-21.309zM650.809 614.613c-2.021-2.74-4.013-5.465-5.756-7.8 4.657-7.74 13.418-12.578 23.015-11.691 13.266 1.256 23.031 13.031 21.811 26.309-0.071 0.483-0.138 0.918-0.202 1.389-1.422-6.876-9.526-12.699-19.834-13.651-7.805-0.732-14.868 1.508-19.034 5.444z" />
<glyph unicode="&#xe940;" d="M354.124 670.767c0-0.013-0.032-0.047-0.032-0.080h-0.009c0.207 0.495 0.424 0.987 0.676 1.469-0.239-0.459-0.457-0.909-0.635-1.389zM354.971 279.394c0.019 0.013 0.056 0.013 0.062 0.039h-0.006c-0.015-0.026-0.034-0.026-0.056-0.039zM354.389 710.604v0zM347.369 281.691l11.486 0.013c-1.402-0.588-2.669-1.355-3.822-2.273 1.142 0.437 2.352 0.702 3.636 0.702 5.76 0 10.424-4.666 10.424-10.431 0-5.756-4.664-10.422-10.424-10.422-4.664 0-8.565 3.059-9.886 7.292v-0.944c0.788-8.89 8.959-15.484 18.3-14.717 9.313 0.728 16.238 8.524 15.469 17.393-0.545 6.109-4.601 11.124-10.129 13.425l10.592 0.043-0.047 20.788-6.32-0.034v66.83c-6.176 3.205-9.743 10.189-8.365 17.361 3.955 0 7.492-1.028 9.86-2.65-3.651-8.035 5.431-16.54 5.431-16.54-1.7 8.781 3.537 14.59 3.537 14.59 2.716 4.065 6.611 7.232 11.027 9.468 13.281 6.656 31.369 4.974 36.779-5.853 34.278 9.022 63.734 43.489 63.734 43.489l16.88-28.698c39.566 0 25.792 29.629 23.211 32.212 9.106 0 21.917-6.702 21.917-21.542 0-36.44-105.935-41.632-105.935-85.864 0-18.571 18.408-25.635 18.408-25.635 0-40.329-27.692-64.286-46.634-64.286-30.29 0-53.484 6.135-53.484-26.893h10.56c-10.032-10.030-0.67-24.743-0.67-24.743-2.113 10.59 3.001 19.358 22.339 19.265h12.066c-7.667-7.662-3.188-19.295 0.34-22.845 0.067 16.585 11.566 22.716 21.805 22.654 3.714 0 8.757 0 8.757 0-2.383-2.348 1.445-13.253 7.033-18.819 0 0-4.039 15.711 13.905 18.819 45.361 7.906 2.736 54.574 71.746 67.457 0 0-34.34 5.166-34.34 23.97 0 17.070 31.089 28.787 41.781 28.787 8.427 1.204 16.452 0.9 23.326-0.573 2.794-27.091 33.894-25.775 40.673-25.775 26.385-26.389-6.71-68.749-6.71-68.749-40.492 0-56.522-5.588-56.522-29.17h7.662c-4.295-4.317-1.859-16.187 1.099-19.149 0 13.018 12.4 16.656 28.274 15.816h8.348c-4.074-4.069-3.354-13.968 0.959-18.265 0.239 15.993 12.087 18.707 20.504 18.265h6.958c-2.604-2.63 0-10.969 3.572-14.541 0 0-1.099 14.237 13.869 14.254 28.42 0-12.863 60.906 42.616 121.115-48.704-22.557-74.639 33.819-74.639 44.637 25.038-29.306 106.221-35.152 106.221 14.877 0 40.365-37.446 59.337-34.344 75.274 1.077 12.199 11.31 21.762 23.806 21.762 13.19 0 23.881-10.715 23.881-23.907 0-10.060-6.18-18.647-14.978-22.177 0.017 0 0.017 0.026 0.017 0.026-0.017-0.026-0.050-0.050-0.050-0.093 23.048 8.55 35.919 30.896 28.888 49.609-7.094 18.729-31.443 26.884-54.443 18.201-9.636-3.636-17.468-9.649-22.822-16.788 15.172 43.375 77.092 52.565 77.092 92.936 0 67.64-96.060 48.685-82.084-0.019 0 0.732 0.043 1.454 0.131 2.159 2.449 27.531 51.662 33.157 51.662-2.729 0-30.661-63.028-47.655-63.028-88.906 0-42.367 46.563-52.965 46.563-97.546 0-5.31-2.807-28.173-33.735-28.173-29.846 0-44.191 16.682-52.341 38.452v0c-15.202 29.368-9.618 75.212-26.738 93.544l1.359 18.854c15.079-9.252 55.079 12.417 28.804 45.419 0-16.247-33.823-15.327-33.823 15.323 0 41.49 38.767 19.84 40.652 10.687-1.863 15.101-2.591 24.715-0.045 33.39-20.932-6.723-22.858 5.353-20.254 10.043 3.063 5.42 7.111 11.727 15.243 11.727 11.755 0 11.010-4.315 10.392-10.394 4.489 6.79 5.765 11.893 16.215 22.111l-0.22 7.673 6.062-2.253 5.894 9.47c-6.303 13.087-14.873 6.758-21.206 22.996-5.252 1.379-74.333 7.753-71.942 40.54-6.114 0-22.753-21.081-11.495-32.36 0 0-8.912 0-14.343 0-7.671-0.907-25.572 4.446-37.061-18.998 28.287 28.282 46.649-39.191-5.452-39.191v0.009c-7.688-0.019-14.282 3.186-14.728 8.608-5.192-22.774 27.63-29.861 27.63-29.861 0-6.766-16.441-43.396-24.431-51.378 5.385-5.388 7.059-37.912-17.841-37.912 8.979 24.28-17.43 44.853-43.080 58.461 0.024 0 0.024 0 0.034 0-4.644 1.766-9.067 3.912-13.164 6.497-15.747 7.195-28.547 11.245-28.547 11.245v19.032c7.919 3.884 16.602 10.743 25.626 22.205 7.051 8.589 10.842 19.614 9.812 31.331-0.11 1.4-0.317 2.76-0.595 4.13-0.062 0.427-0.162 0.832-0.252 1.258-0.207 0.944-0.437 1.872-0.709 2.779-0.123 0.463-0.254 0.898-0.416 1.357-0.297 0.935-0.638 1.848-0.987 2.736-0.155 0.377-0.284 0.737-0.439 1.109-0.515 1.172-1.079 2.324-1.674 3.429-0.237 0.472-0.528 0.896-0.776 1.346-0.416 0.676-0.819 1.346-1.252 2.003-0.36 0.526-0.72 1.064-1.105 1.588-0.381 0.502-0.765 1.019-1.172 1.501-0.435 0.571-0.875 1.129-1.346 1.663-0.306 0.353-0.633 0.694-0.963 1.030-1.185 1.282-2.443 2.486-3.766 3.615-0.134 0.108-0.246 0.254-0.377 0.349-0.743 0.625-1.521 1.228-2.32 1.797-0.211 0.138-0.407 0.317-0.614 0.459-0.844 0.601-1.682 1.152-2.574 1.706-0.052 0.024-0.106 0.067-0.155 0.086-8.44 5.196-18.649 7.876-29.422 7.033-2.32-0.185-4.578-0.601-6.786-1.073-14.939-5.726-25.812-23.214-25.812-43.911 0-19.504 9.67-36.137 23.27-42.774 0.185-0.052 0.383-0.127 0.577-0.174-6.482-3.61-11.945-5.694-13.186-5.694 0.211-0.134 0.485-0.284 0.78-0.483 0.075-0.032 0.155-0.075 0.241-0.123 0.261-0.151 0.534-0.304 0.862-0.478 0.080-0.043 0.155-0.088 0.246-0.118 0.388-0.207 0.84-0.45 1.31-0.681 0.086-0.024 0.174-0.065 0.241-0.112 0.411-0.194 0.855-0.368 1.336-0.567 0.131-0.056 0.254-0.112 0.396-0.166 1.152-0.455 2.408-0.898 3.813-1.29 0.194-0.045 0.381-0.099 0.579-0.155 0.545-0.142 1.116-0.274 1.706-0.396 0.198-0.054 0.405-0.086 0.614-0.131 0.743-0.142 1.508-0.271 2.311-0.368 0.056 0 0.118-0.011 0.174-0.047 4.948-0.405 10.797 0.823 10.797 0.823v-11.040c-0.888 0-8.664 2.507-10.797 4.64-0.263-0.041-0.547-0.088-0.832-0.142-8.421-1.379-13.91-3.97-16.383-11.497-2.464-7.542 0.067-10.267 4.018-15.558-3.363-5.948-12.087-8.192-0.689-21.389-0.81-4.97 0.23-12.921 7.471-15.331 2.372-0.801 4.345-1.204 6.415-1.575 4.291 0 10.797-3.585 10.797-12.492v-84.966c3.908-0.226 8.147-0.754 12.001-1.086v93.322c4.435-0.427 15.956-2.003 29.392-7.546 0.155-0.075 0.274-0.162 0.407-0.25-0.011 0.011-0.024 0.011-0.024 0.019 1.228-0.151 2.475-0.416 3.71-0.784 8.949-2.751 14.519-10.517 12.43-17.393-2.090-6.863-11.070-10.207-20.004-7.464 10.612-20.372 47.459-10.405 55.484 6.174 3.912 0.349 7.393-6.672 10.668-13.296 0 0 9.229-3.535 32.085-3.535 0 0-92.529-59.075-119.291-59.075-11.434 0-36.796 0-36.796-8.647-6.969 0-17.018-11.844-17.018-18.614 6.59 5.142 11.958 5.142 11.958 5.142 5.618 0 8.783-1.678 8.783-1.678-2.059-2.036-11.292-12.453-11.292-20.545 7.731 7.742 11.105 7.712 11.105 7.712s8.080 1.043 10.961-1.855c-1.947-1.934-5.353-8.94-5.353-17.225 0 0 4.795 9.257 10.797 9.257v-88.818c0-2.714-12.255-5.319-17.303-5.319zM351.139 550.399c-2.281-0.086-3.365 2.878-3.384 3.951-0.056 1.086 0.799 4.106 3.076 4.196 5.42 0.185 16.262-2.415 16.305-3.483 0.043-1.060-10.579-4.468-15.997-4.664zM347.642 565.058c-3.143 0.222-4.181 4.47-4.076 5.963 0.099 1.465 1.754 5.528 4.894 5.297 7.503-0.562 22.046-5.793 21.923-7.27-0.093-1.499-15.25-4.543-22.742-3.99zM346.352 583.84c-3.328 0.875-3.602 5.64-3.199 7.214 0.416 1.568 2.99 5.586 6.331 4.72 7.932-2.079 22.514-10.607 22.098-12.171-0.405-1.568-17.292-1.842-25.23 0.237zM370.925 636.763c1.379 3.287 1.086 7.777 0.23 12.001-0.142 0-0.284-0.009-0.429-0.009-9.545 0-17.279 7.74-17.279 17.268-0.142 1.631 0.088 3.212 0.638 4.664h0.009c0 0.032 0.019 0.067 0.032 0.080 2.064 7.225 8.694 12.546 16.602 12.546 9.517 0 17.272-7.74 17.272-17.29-0.004-11.014-7.757-21.154-17.076-29.26z" />
<glyph unicode="&#xe941;" d="M630.198 621.675c4.623-7.74 13.406-12.578 23.003-11.684 13.287 1.241 23.026 13.022 21.811 26.316-0.050 0.47-0.134 0.922-0.198 1.394-1.409-6.868-9.552-12.705-19.838-13.66-7.826-0.732-14.881 1.512-19.047 5.444-2.008-2.751-4.022-5.474-5.73-7.809z" />
<glyph unicode="&#xe942;" d="M597.938 666.475l8.343-0.439-4.177-5.726c0 0-5.571-1.762-4.166 6.165zM578.034 666.475h12.020c0 0-0.433-9.7 8.343-10.568l-1.863-3.089c0 0-23.586 6.165-18.5 13.658z" />
<glyph unicode="&#xe943;" d="M371.582 583.604c0.416 1.564-14.166 10.095-22.098 12.171-3.341 0.866-5.915-3.152-6.331-4.72-0.405-1.575-0.131-6.34 3.199-7.214 7.938-2.079 24.825-1.805 25.23-0.237zM370.386 569.050c0.123 1.478-14.42 6.708-21.923 7.27-3.141 0.23-4.795-3.832-4.894-5.297-0.106-1.493 0.931-5.741 4.076-5.963 7.49-0.556 22.647 2.488 22.742 3.99zM353.874 612.935v-5.575c2.133-2.135 9.909-4.64 10.797-4.64v11.040c0.002-0.002-5.846-1.228-10.797-0.825zM350.83 558.548c-2.277-0.090-3.132-3.111-3.076-4.196 0.019-1.073 1.105-4.039 3.384-3.951 5.418 0.194 16.040 3.604 15.997 4.666-0.043 1.066-10.885 3.669-16.305 3.481zM339.672 411.375c-8.968-11.622-2.51-22.223-2.51-22.223 0 8.091 9.233 18.509 11.292 20.545 0 0-3.162 1.678-8.783 1.678zM368.284 386.721c-1.379-7.169 2.189-14.153 8.365-17.361 1.314-0.681 2.74-1.219 4.237-1.514 0.642-0.146 1.243-0.224 1.866-0.295 0.274-0.004 0.549-0.009 0.823-0.022 0 0-9.082 8.503-5.431 16.54-2.37 1.624-5.905 2.652-9.86 2.652zM351.871 623.919c-13.599 6.637-23.27 23.27-23.27 42.774 0 20.695 10.872 38.185 25.812 43.911-22.43-4.97-38.252-24.903-36.272-47.371 1.678-19.034 15.583-34.254 33.73-39.314zM496.254 671.654c14.433 2.716 19.33-10.116 19.33-14.709 0-17.397-13.548-24.407-24.782-24.474v-0.009c52.101 0 33.739 67.474 5.452 39.191zM461.429 521.929c24.9 0 23.227 32.522 17.841 37.912 7.99 7.983 24.431 44.611 24.431 51.378 0 0-32.864 7.087-27.617 29.894-0.011 0.013-0.011 0.024-0.011 0.045l-0.439 0.080c-8.957-9.45-3.511-29.161 10.698-34.079 0 0-5.485-21.671-19.022-35.413-13.477 0.523-32.367 2.296-48.958 8.647 25.648-13.612 52.058-34.185 43.077-58.463zM364.156 678.080c6.439 0.515 12.109-4.050 12.658-10.202 0.534-6.122-4.261-11.534-10.711-12.044-6.463-0.519-12.143 4.046-12.658 10.192 0-9.526 7.734-17.268 17.279-17.268 0.142 0 0.284 0.009 0.429 0.009 0.855-4.224 1.148-8.714-0.23-12.001 9.321 8.106 17.074 18.246 17.074 29.26 0 9.55-7.753 17.29-17.272 17.29-7.949 0-14.605-5.353-16.641-12.626 1.51 3.998 5.332 7.008 10.073 7.391zM547.657 690.652c-11.26 11.279 5.381 32.36 11.495 32.36-6.687 0-35.678-18.983-25.837-32.36 5.431 0 14.343 0 14.343 0zM402.583 503.226c8.931-2.742 17.912 0.601 20.004 7.464 2.092 6.876-3.481 14.642-12.43 17.393-1.234 0.368-2.482 0.633-3.71 0.784 12.921-7.367 12.77-22.147-3.865-25.641zM376.672 598.131c0 0 12.8-4.050 28.547-11.245-3.162 1.96-6.129 4.171-8.793 6.68-7.994 7.555-14.353 11.671-19.754 13.763v-9.198zM381.528 433.495c26.762 0 119.291 59.075 119.291 59.075-22.854 0-32.085 3.535-32.085 3.535-5.159-2.688-15.747-8.001-38.317-21.294-18.365-10.81-30.674-24.478-47.418-30.443-2.551-0.922-4.578-1.14-6.327-1.043-3.854 0.332-8.093 0.857-12.001 1.086v84.966c0 8.91-6.506 12.492-10.797 12.492v-98.873c-7.238-3.837-10.799-8.604-12.757-13.063 0 0-13.798 1.842-13.403-23.696 0 6.771 10.049 18.614 17.018 18.614 0 8.645 25.361 8.645 36.796 8.645zM612.333 296.712c-6.777 0-37.879-1.316-40.673 25.775-6.874 1.473-14.898 1.775-23.326 0.573 21.988-41.964 45.856-42.298 52.101-42.621 9.72-10.842 6.463-47.455-7.578-46.716-51.401 2.736-49.516-28.535-43.756-34.93 0 23.582 16.029 29.17 56.522 29.17 0 0 33.095 42.36 6.71 68.749zM622.901 195.46h-6.958c-0.588-11.234 10.532-14.541 10.532-14.541-3.574 3.572-6.178 11.911-3.574 14.541zM557.86 179.644c-2.958 2.962-5.394 14.832-1.099 19.149h-7.662c-0.642-12.156 8.761-19.149 8.761-19.149zM711.295 570.054c0 35.898-49.228 30.258-51.662 2.693 2.171 20.204 35.064 23.186 35.064-2.122 0-26.152-61.341-43.284-61.341-87.484 0-48.704 48.7-53.211 43.773-97.738-0.834-7.708-9.093-17.781-21.049-17.781-25.639 0-39.357 10.881-47.326 26.258 8.149-21.768 22.492-38.452 52.341-38.452 30.928 0 33.735 22.862 33.735 28.173 0 44.581-46.563 55.18-46.563 97.546 0.002 41.253 63.028 58.247 63.028 88.908zM348.267 396.865c0-13.746 5.607-19.080 5.607-19.080 0 8.285 3.406 15.29 5.353 17.225-2.878 2.897-10.961 1.855-10.961 1.855zM704 472.839c-12.497 0-22.729-9.562-23.806-21.762 0.569 2.928 2.52 5.773 6.331 8.621 14.321 10.642 42.377-10.793 26.376-32.944 8.798 3.531 14.978 12.117 14.978 22.177 0.002 13.192-10.689 23.907-23.879 23.907zM594.481 195.46h-8.348c-0.853-15.879 9.306-18.265 9.306-18.265-4.313 4.295-5.032 14.196-0.959 18.265zM358.67 280.133c-1.29 0-2.495-0.265-3.643-0.702-3.968-3.020-6.387-7.712-6.243-12.858 1.323-4.233 5.222-7.292 9.886-7.292 5.76 0 10.424 4.666 10.424 10.422 0 5.765-4.664 10.431-10.424 10.431zM417.309 203.036h-12.066c-0.103-19.338 12.404-22.845 12.404-22.845-3.526 3.55-8.003 15.185-0.338 22.845zM454.725 325.33c0 44.232 105.935 49.424 105.935 85.864 0 14.84-12.811 21.542-21.917 21.542 2.579-2.583 16.355-32.212-23.211-32.212-35.779-11.975-113.692-79.701-59.611-103.182-0.024-6.807-0.941-57.491-33.422-53.506-46.791 5.79-58.465-13.552-49.484-35.32 0 33.028 23.194 26.893 53.484 26.893 18.942 0 46.634 23.957 46.634 64.286 0-0.002-18.408 7.064-18.408 25.635zM364.673 298.222v88.818c-6.004 0-10.797-9.257-10.797-9.257v-75.291l-6.562-0.022 0.056-9.567c5.047 0 17.303 2.604 17.303 5.319zM382.906 183.772c0 0-9.364 14.713 0.67 24.743h-10.56c-4.239-18.377 9.89-24.743 9.89-24.743zM448.211 202.845c0 0-5.043 0-8.757 0-0.067-13.649 15.79-18.819 15.79-18.819-5.588 5.564-9.416 16.471-7.033 18.819z" />
<glyph unicode="&#xe944;" d="M153.646 350.302l-0.584 1.792-0.25 1.868c-0.855 6.387-2.4 18.285-11.585 20.411-2.456 0.569-4.993 0.278-7.701-0.834 0.737 2.824 0.651 5.385-0.237 7.729-3.386 8.806-15.375 8.696-21.816 8.612h-1.894l-1.866 0.345c-6.327 1.165-18.13 3.369-22.972-4.716-1.301-2.159-1.818-4.657-1.596-7.566-2.451 1.581-4.922 2.286-7.415 2.167-9.427-0.504-13.031-11.941-14.959-18.1l-0.588-1.788-0.875-1.661c-3.089-5.672-8.817-16.187-2.63-23.308 1.652-1.902 3.875-3.177 6.715-3.85-2.245-1.859-3.694-3.985-4.328-6.42-2.462-9.093 7.314-16.051 12.548-19.776l1.536-1.135 1.323-1.338c4.435-4.692 12.677-13.38 21.357-9.703 2.296 0.989 4.201 2.701 5.726 5.192 1.086-2.714 2.648-4.728 4.752-6.114 7.906-5.121 17.533 2.012 22.712 5.823l1.532 1.122 1.7 0.834c5.816 2.785 16.652 7.927 15.833 17.322-0.218 2.52-1.271 4.834-3.156 7.051 2.902 0.172 5.301 1.051 7.249 2.63 7.342 5.933 3.52 17.298 1.469 23.408z" />
<glyph unicode="&#xe945;" d="M112.35 342.682c52.739-31.169 36.496 3.109 35.337 8.175-1.168 5.052-1.611 42.97-35.337-8.175z" />
<glyph unicode="&#xe946;" d="M109.035 334.88c-13.347-59.766 14.233-33.748 18.681-31.098 4.446 2.673 40.37 14.825-18.681 31.098z" />
<glyph unicode="&#xe947;" d="M100.567 335.604c-60.99-5.756-27.701-23.957-23.791-27.356 3.921-3.386 26.555-33.814 23.791 27.356z" />
<glyph unicode="&#xe948;" d="M98.654 343.906c-24.342 56.212-31.363 18.938-33.39 14.149-2.027-4.75-23.972-35.699 33.39-14.149z" />
<glyph unicode="&#xe949;" d="M969.794 358.561l-0.875 1.661-0.597 1.788c-1.928 6.159-5.532 17.595-14.933 18.1-2.52 0.118-4.974-0.584-7.43-2.15 0.224 2.891-0.323 5.39-1.59 7.548-4.864 8.087-16.65 5.881-22.977 4.716l-1.885-0.345h-1.885c-6.417 0.084-18.416 0.194-21.79-8.612-0.918-2.344-0.984-4.905-0.265-7.729-2.667 1.112-5.209 1.4-7.682 0.834-9.177-2.124-10.754-14.024-11.566-20.411l-0.282-1.868-0.569-1.792c-2.062-6.109-5.87-17.473 1.469-23.41 1.947-1.577 4.33-2.458 7.249-2.63-1.885-2.217-2.936-4.532-3.156-7.051-0.812-9.394 10.006-14.537 15.833-17.322l1.682-0.834 1.532-1.122c5.196-3.813 14.832-10.943 22.712-5.823 2.133 1.385 3.682 3.399 4.754 6.114 1.536-2.49 3.421-4.203 5.739-5.192 8.675-3.677 16.926 5.011 21.357 9.703l1.333 1.338 1.514 1.135c5.252 3.725 15.021 10.683 12.568 19.776-0.657 2.436-2.079 4.56-4.339 6.42 2.826 0.672 5.058 1.947 6.702 3.85 6.198 7.124 0.48 17.639-2.626 23.311z" />
<glyph unicode="&#xe94a;" d="M923.168 348.264c-45.927 40.518-8.322 35.682-3.152 36.137 5.146 0.435 41.363 11.745 3.152-36.137z" />
<glyph unicode="&#xe94b;" d="M916.773 342.682c-52.739-31.169-36.529 3.109-35.346 8.175 1.157 5.052 1.594 42.97 35.346-8.175z" />
<glyph unicode="&#xe94c;" d="M920.075 334.88c13.358-59.766-14.228-33.748-18.681-31.098-4.446 2.673-40.357 14.825 18.681 31.098z" />
<glyph unicode="&#xe94d;" d="M928.532 335.604c60.994-5.756 27.727-23.957 23.802-27.356-3.897-3.386-26.561-33.814-23.802 27.356z" />
<glyph unicode="&#xe94e;" d="M930.435 343.906c24.358 56.212 31.363 18.938 33.399 14.149 2.014-4.75 23.961-35.699-33.399-14.149z" />
<glyph unicode="&#xe94f;" d="M942.283 342.15c-0.058 0.489-0.215 0.926-0.282 1.4 4.901 3.598 10.187 7.451 10.187 7.451l-0.508 1.14c0 0-6.172-1.077-12.092-2.109-2.971 4.868-8.035 8.171-13.834 8.735-1.842 5.536-3.682 11.176-3.682 11.176l-1.241-0.106c0 0-0.834-5.874-1.674-11.633-3.567-0.963-6.762-2.979-9.194-5.866-1.297-1.553-2.234-3.315-2.979-5.151-5.963 0-12.264-0.022-12.264-0.022l-0.265-1.228c0 0 5.87-2.865 11.301-5.519 0.022-0.495-0.043-0.984 0-1.484 0.416-4.78 2.654-9.071 6.264-12.201-1.906-5.959-4.052-12.617-4.052-12.617l1.051-0.635c0 0 4.948 5.125 9.354 9.649 2.301-0.754 4.75-1.056 7.225-0.834 2.495 0.19 4.86 0.935 7.005 2.053 5.108-3.677 10.868-7.843 10.868-7.843l0.939 0.812c0 0-3.261 6.172-6.176 11.697 3.020 3.722 4.444 8.365 4.048 13.134z" />
<glyph unicode="&#xe950;" d="M923.076 351.327c-2.891-0.224-5.495-1.59-7.354-3.824-1.859-2.217-2.76-5.015-2.495-7.889 0.504-5.954 5.778-10.383 11.715-9.858 2.912 0.265 5.495 1.624 7.38 3.832 1.842 2.234 2.738 5.015 2.495 7.91-0.519 5.956-5.799 10.366-11.74 9.827z" />
<glyph unicode="&#xe951;" d="M105.943 348.264c45.943 40.518 8.315 35.682 3.16 36.137-5.172 0.435-41.384 11.745-3.16-36.137z" />
<glyph unicode="&#xe952;" d="M123.336 340.423c5.465 2.654 11.312 5.519 11.312 5.519l-0.274 1.228c0 0-6.288 0.022-12.266 0.022-0.724 1.835-1.665 3.598-2.968 5.151-2.43 2.887-5.627 4.901-9.198 5.866-0.819 5.76-1.652 11.633-1.652 11.633l-1.262 0.106c0 0-1.829-5.638-3.643-11.176-5.836-0.564-10.907-3.867-13.873-8.735-5.896 1.032-12.104 2.109-12.104 2.109l-0.478-1.14c0 0 5.278-3.854 10.172-7.451-0.080-0.476-0.222-0.913-0.274-1.4-0.405-4.793 1.049-9.412 4.063-13.136-2.934-5.523-6.2-11.697-6.2-11.697l0.967-0.812c0 0 5.75 4.166 10.853 7.843 2.146-1.12 4.509-1.84 6.997-2.053 2.495-0.224 4.937 0.080 7.238 0.834 4.392-4.524 9.334-9.649 9.334-9.649l1.084 0.635c0 0-2.15 6.661-4.067 12.598 3.604 3.152 5.84 7.443 6.264 12.223 0.052 0.5-0.024 0.987-0.024 1.484z" />
<glyph unicode="&#xe953;" d="M113.395 347.503c-1.866 2.234-4.457 3.602-7.361 3.824-5.935 0.539-11.215-3.871-11.732-9.827-0.246-2.895 0.648-5.676 2.49-7.91 1.861-2.208 4.479-3.567 7.367-3.832 5.935-0.526 11.213 3.903 11.727 9.858 0.243 2.874-0.644 5.672-2.492 7.889z" />
<glyph unicode="&#xe954;" d="M112.658 603.136c-25.676 4.535-50.262-12.701-54.798-38.377-4.53-25.693 12.686-50.277 38.364-54.811 25.7-4.532 50.296 12.695 54.818 38.383 4.545 25.68-12.682 50.264-38.383 54.805z" />
<glyph unicode="&#xe955;" d="M123.369 567.35c-0.416 0.254-1.14 0.724-2.016 1.303-3.88 2.572-11.486 7.602-11.695 7.753-1.053 0.724-2.079 1.413-3.089 2.094-3.382 2.266-6.407 4.237-9.25 5.879-1.096 0.623-2.156 1.204-3.223 1.726-4.522 2.281-8.856 3.66-13.972 4.11-3.944-2.848-7.367-6.374-10.14-10.45 11.764-4.248 23.25-11.051 47.166-25.906 1.368 3.162 5.946 12.899 6.219 13.492z" />
<glyph unicode="&#xe956;" d="M112.341 541.991c0.478 1.191 2.581 6.512 3.44 8.561-24.508 15.224-35.889 21.96-47.679 26.128-1.829-3.283-3.199-6.865-4.093-10.678 6.73-9.239 24.765-18.317 48.332-24.011z" />
<glyph unicode="&#xe957;" d="M109.687 580.678c9.177 5.429 19.603 3.951 27.651 1.204-3.001 3.875-6.635 7.262-10.861 9.899-7.602 1.512-18.102 1.749-26.46-4.894 3.040-1.786 6.178-3.869 9.67-6.208z" />
<glyph unicode="&#xe958;" d="M73.070 536.832c1.228-0.842 2.486-1.644 3.824-2.395 2.701-1.493 5.627-2.783 8.649-3.888 1.282-0.485 2.585-0.935 3.899-1.359 4.597-1.512 15.146-4.252 15.932-4.435 0.162 0.405 4.115 10.181 5.614 13.895-18.272 4.532-38.28 12.464-47.787 22.778-0.571-4.763-0.349-9.474 0.657-13.942 2.006-4.369 5.226-7.85 9.211-10.653z" />
<glyph unicode="&#xe959;" d="M105.991 520.934l-3.813 0.982c-3.535 0.898-7.367 1.904-11.264 3.1 1.9-4.050 4.89-7.206 8.078-9.649 4.272-0.567 8.488-0.459 12.54 0.241-2.928 2.277-5.541 5.325-5.541 5.325z" />
<glyph unicode="&#xe95a;" d="M144.206 568.606c-0.868 2.837-2.008 5.586-3.44 8.147-7.204 3.212-18.175 6.351-27.757 1.663l13.216-8.727c2.755 0.246 5.291 0.321 7.611 0.265 1.267-0.019 2.443-0.088 3.567-0.198 2.587-0.228 4.795-0.644 6.803-1.15z" />
<glyph unicode="&#xe95b;" d="M137.44 566.189c-0.386-21.719-10.625-38.47-19.448-48.95 13.811 4.8 24.702 16.701 27.419 32.076 0.931 5.254 0.767 10.422-0.207 15.34-2.146 0.668-4.711 1.226-7.764 1.534z" />
<glyph unicode="&#xe95c;" d="M96.717 588.726c6.185 5.452 13.49 7.294 20.226 7.445-1.71 0.547-3.453 1.019-5.269 1.327-9.606 1.695-19.002-0.090-26.983-4.414 4.25-0.832 8.091-2.322 12.027-4.358z" />
<glyph unicode="&#xe95d;" d="M126.729 566.167c-3.143-6.547-4.991-10.556-6.525-14.203-0.472-1.105-0.931-2.178-1.394-3.294-0.732-1.829-2.99-7.514-2.99-7.514l-7.182-17.794c1.609-2.135 3.559-3.875 5.476-5.235 8.671 9.89 19.461 26.512 19.791 48.269-2.182 0.078-4.582-0.002-7.176-0.23z" />
<glyph unicode="&#xe95e;" d="M86.541 526.453c-2.91 1.002-5.816 2.143-8.561 3.481 1.025-3.167 2.503-5.978 3.992-8.391 3.113-1.997 6.529-3.572 10.176-4.696-2.363 2.663-4.403 5.812-5.607 9.606z" />
<glyph unicode="&#xe95f;" d="M73.697 532.273c-1.973 1.183-3.809 2.499-5.508 3.944 1.924-3.44 4.347-6.594 7.158-9.36-0.668 1.726-1.254 3.511-1.65 5.416z" />
<glyph unicode="&#xe960;" d="M872.943 548.329c4.539-25.689 29.112-42.916 54.798-38.383 25.691 4.532 42.903 29.118 38.392 54.811-4.532 25.676-29.12 42.912-54.818 38.377-25.691-4.539-42.903-29.123-38.373-54.805z" />
<glyph unicode="&#xe961;" d="M900.608 567.35c0.411 0.254 1.14 0.724 2.036 1.303 3.88 2.572 11.478 7.602 11.671 7.753 1.077 0.724 2.1 1.413 3.113 2.094 3.345 2.266 6.396 4.237 9.244 5.879 1.094 0.623 2.167 1.204 3.214 1.726 4.511 2.281 8.869 3.66 13.976 4.11 3.942-2.848 7.38-6.374 10.114-10.45-11.755-4.248-23.207-11.051-47.153-25.906-1.377 3.162-5.933 12.899-6.215 13.492z" />
<glyph unicode="&#xe962;" d="M911.644 541.991c-0.48 1.191-2.604 6.512-3.417 8.561 24.465 15.224 35.88 21.96 47.657 26.128 1.818-3.283 3.201-6.865 4.097-10.678-6.743-9.239-24.775-18.317-48.338-24.011z" />
<glyph unicode="&#xe963;" d="M914.3 580.678c-9.185 5.429-19.603 3.951-27.664 1.204 3.005 3.875 6.661 7.262 10.885 9.899 7.594 1.512 18.087 1.749 26.434-4.894-3.016-1.786-6.176-3.869-9.655-6.208z" />
<glyph unicode="&#xe964;" d="M950.891 536.832c-1.2-0.842-2.454-1.644-3.813-2.395-2.688-1.493-5.61-2.783-8.625-3.888-1.293-0.485-2.604-0.935-3.921-1.359-4.573-1.512-15.133-4.252-15.922-4.435-0.177 0.405-4.14 10.181-5.61 13.895 18.265 4.532 38.259 12.464 47.793 22.778 0.564-4.763 0.323-9.474-0.666-13.942-2.012-4.369-5.228-7.85-9.237-10.653z" />
<glyph unicode="&#xe965;" d="M918.003 520.934l3.787 0.982c3.546 0.898 7.402 1.904 11.301 3.1-1.928-4.050-4.905-7.206-8.087-9.649-4.265-0.567-8.494-0.459-12.525 0.241 2.893 2.277 5.523 5.325 5.523 5.325z" />
<glyph unicode="&#xe966;" d="M879.776 568.606c0.879 2.837 1.995 5.586 3.466 8.147 7.182 3.212 18.13 6.351 27.718 1.663l-13.203-8.727c-2.76 0.246-5.293 0.321-7.619 0.265-1.249-0.019-2.432-0.088-3.572-0.198-2.583-0.228-4.769-0.644-6.79-1.15z" />
<glyph unicode="&#xe967;" d="M886.547 566.189c0.375-21.719 10.64-38.47 19.472-48.95-13.847 4.8-24.752 16.701-27.44 32.076-0.922 5.254-0.791 10.422 0.215 15.34 2.128 0.668 4.711 1.226 7.753 1.534z" />
<glyph unicode="&#xe968;" d="M927.279 588.726c-6.189 5.452-13.507 7.294-20.23 7.445 1.704 0.547 3.434 1.019 5.271 1.327 9.597 1.695 18.991-0.090 26.966-4.414-4.229-0.832-8.083-2.322-12.007-4.358z" />
<glyph unicode="&#xe969;" d="M897.26 566.167c3.152-6.547 4.965-10.556 6.551-14.203 0.455-1.105 0.892-2.178 1.355-3.294 0.745-1.829 3.001-7.514 3.001-7.514l1.338-3.337 5.849-14.457c-1.62-2.135-3.554-3.875-5.478-5.235-8.666 9.89-19.476 26.512-19.78 48.269 2.169 0.078 4.58-0.002 7.165-0.23z" />
<glyph unicode="&#xe96a;" d="M937.449 526.453c2.912 1.002 5.797 2.143 8.567 3.481-1.056-3.167-2.503-5.978-4.013-8.391-3.109-1.997-6.525-3.572-10.157-4.696 2.359 2.663 4.395 5.812 5.603 9.606z" />
<glyph unicode="&#xe96b;" d="M950.303 532.273c1.947 1.183 3.787 2.499 5.495 3.944-1.928-3.44-4.334-6.594-7.156-9.36 0.655 1.726 1.243 3.511 1.661 5.416z" />
</font>
</defs>
</svg>
